<svg width="35" height="35" viewBox="0 0 35 35" fill="none" xmlns="http://www.w3.org/2000/svg">
<g opacity="0.25">
<path d="M19.2635 5.12132C18.0919 6.29289 16.1924 6.29289 15.0208 5.12132C13.8492 3.94975 13.8492 2.05025 15.0208 0.87868C16.1924 -0.292893 18.0919 -0.292893 19.2635 0.87868C20.435 2.05025 20.435 3.94975 19.2635 5.12132Z" fill="#36536B"/>
<path d="M26.3345 12.1924C25.163 13.364 23.2635 13.364 22.0919 12.1924C20.9203 11.0208 20.9203 9.12132 22.0919 7.94975C23.2635 6.77817 25.163 6.77817 26.3345 7.94975C27.5061 9.12132 27.5061 11.0208 26.3345 12.1924Z" fill="#36536B"/>
<path d="M33.4056 19.2635C32.234 20.435 30.3345 20.435 29.163 19.2635C27.9914 18.0919 27.9914 16.1924 29.163 15.0208C30.3345 13.8492 32.234 13.8492 33.4056 15.0208C34.5772 16.1924 34.5772 18.0919 33.4056 19.2635Z" fill="#36536B"/>
<path d="M12.1924 12.1924C11.0208 13.364 9.12132 13.364 7.94975 12.1924C6.77817 11.0208 6.77817 9.12132 7.94975 7.94975C9.12132 6.77817 11.0208 6.77817 12.1924 7.94975C13.364 9.12132 13.364 11.0208 12.1924 12.1924Z" fill="#36536B"/>
<path d="M19.2635 19.2635C18.0919 20.435 16.1924 20.435 15.0208 19.2635C13.8492 18.0919 13.8492 16.1924 15.0208 15.0208C16.1924 13.8492 18.0919 13.8492 19.2635 15.0208C20.435 16.1924 20.435 18.0919 19.2635 19.2635Z" fill="#36536B"/>
<path d="M26.3345 26.3345C25.163 27.5061 23.2635 27.5061 22.0919 26.3345C20.9203 25.1629 20.9203 23.2635 22.0919 22.0919C23.2635 20.9203 25.163 20.9203 26.3345 22.0919C27.5061 23.2635 27.5061 25.1629 26.3345 26.3345Z" fill="#36536B"/>
<path d="M5.12132 19.2635C3.94975 20.435 2.05025 20.435 0.87868 19.2635C-0.292893 18.0919 -0.292893 16.1924 0.87868 15.0208C2.05025 13.8492 3.94975 13.8492 5.12132 15.0208C6.29289 16.1924 6.29289 18.0919 5.12132 19.2635Z" fill="#36536B"/>
<path d="M12.1924 26.3345C11.0208 27.5061 9.12132 27.5061 7.94975 26.3345C6.77817 25.1629 6.77817 23.2635 7.94975 22.0919C9.12132 20.9203 11.0208 20.9203 12.1924 22.0919C13.364 23.2635 13.364 25.1629 12.1924 26.3345Z" fill="#36536B"/>
<path d="M19.2635 33.4056C18.0919 34.5772 16.1924 34.5772 15.0208 33.4056C13.8492 32.234 13.8492 30.3345 15.0208 29.163C16.1924 27.9914 18.0919 27.9914 19.2635 29.163C20.435 30.3345 20.435 32.234 19.2635 33.4056Z" fill="#36536B"/>
</g>
</svg>
